<?xml version="1.0" standalone="no"?>
<!DOCTYPE svg PUBLIC "-//W3C//DTD SVG 20010904//EN"
 "http://www.w3.org/TR/2001/REC-SVG-20010904/DTD/svg10.dtd">
<svg version="1.0" xmlns="http://www.w3.org/2000/svg"
 width="500.000000pt" height="500.000000pt" viewBox="0 0 500.000000 500.000000"
 preserveAspectRatio="xMidYMid meet">

<g transform="translate(0.000000,500.000000) scale(0.100000,-0.100000)"
fill="#000000" stroke="none">
<path d="M2530 2972 c0 -4 -15 -6 -32 -4 -18 2 -50 -3 -71 -10 l-38 -14 21
-27 c40 -51 130 -24 130 40 0 13 -2 23 -5 23 -3 0 -5 -4 -5 -8z"/>
<path d="M3245 2658 c-3 -45 -5 -155 -3 -243 l3 -160 43 -3 c24 -2 49 2 56 7
9 8 15 63 19 181 4 94 11 179 17 189 21 40 83 29 107 -19 9 -17 13 -77 13
-186 0 -159 0 -162 23 -168 38 -10 56 -7 77 14 18 18 20 33 20 183 0 144 2
166 18 179 31 28 57 30 85 7 l27 -20 0 -179 0 -179 56 -7 c33 -4 59 -3 65 3 6
6 9 75 7 174 -3 146 -5 169 -25 209 -56 112 -194 134 -291 47 -26 -23 -39 -32
-28 -20 18 22 18 22 -15 42 -41 25 -90 36 -127 27 -30 -8 -29 -8 -94 0 l-46 6
-7 -84z"/>
<path d="M2915 2692 l-34 -14 46 -31 c69 -47 88 -78 87 -140 -3 -94 -18 -155
-49 -187 -57 -59 -115 -57 -141 6 -20 47 -12 78 32 122 32 32 37 34 79 28 51
-8 54 -2 23 44 -35 52 -110 62 -124 17 -3 -11 -23 -38 -43 -61 -21 -23 -66
-77 -100 -121 l-63 -80 38 -8 c20 -4 61 -21 90 -38 68 -39 139 -48 198 -25 50
19 130 98 152 151 18 45 19 185 0 229 -23 54 -85 118 -109 110 -11 -3 -17 -2
-14 3 8 13 -29 11 -68 -5z"/>
<path d="M2199 2661 c-20 -4 -44 -6 -53 -5 -9 1 -2 -11 18 -30 38 -35 59 -96
54 -153 -4 -46 -22 -52 -38 -13 -7 16 -30 46 -51 65 -32 29 -47 35 -84 35 -32
0 -51 -6 -65 -20 -11 -11 -23 -19 -26 -19 -14 3 -97 -76 -111 -107 -16 -32
-15 -34 10 -67 29 -38 119 -118 154 -136 31 -16 107 -14 151 4 153 64 214 295
113 422 -14 18 -28 32 -31 32 -3 -1 -21 -4 -41 -8z m-73 -215 c55 -55 40 -132
-33 -162 -54 -23 -98 5 -103 66 -5 56 1 82 25 105 34 35 70 32 111 -9z"/>
<path d="M2465 2630 c-12 -13 -15 -45 -15 -161 -1 -246 -23 -330 -112 -416
-61 -60 -118 -83 -204 -83 -128 0 -179 34 -325 218 l-99 125 0 126 c0 129 -6
155 -31 147 -52 -16 -69 -16 -71 1 -1 10 -4 -25 -7 -77 l-6 -95 -20 21 c-117
126 -133 139 -165 138 -14 0 -33 3 -42 8 -17 8 -23 0 -19 -25 1 -5 -3 -6 -9
-2 -6 3 -8 10 -5 15 3 5 0 12 -6 15 -7 5 -10 1 -7 -8 1 -9 82 -101 179 -204
96 -103 217 -234 268 -290 127 -141 192 -185 302 -202 206 -33 390 81 471 292
18 45 20 73 19 202 -2 203 -9 265 -29 258 -9 -4 -13 -2 -9 4 11 18 -41 12 -58
-7z"/>
<path d="M1198 2573 c-22 -6 -30 -74 -26 -208 3 -98 3 -100 31 -109 17 -6 37
-6 55 0 l27 10 0 144 c0 80 3 150 7 156 7 11 -61 16 -94 7z"/>
<path d="M2800 2535 c-7 -9 -10 -18 -7 -21 3 -3 10 4 17 15 13 25 8 27 -10 6z"/>
</g>
</svg>
