<?xml version="1.0" standalone="no"?>
<!DOCTYPE svg PUBLIC "-//W3C//DTD SVG 20010904//EN"
 "http://www.w3.org/TR/2001/REC-SVG-20010904/DTD/svg10.dtd">
<svg version="1.0" xmlns="http://www.w3.org/2000/svg"
 width="501.000000pt" height="498.000000pt" viewBox="0 0 501.000000 498.000000"
 preserveAspectRatio="xMidYMid meet">

<g transform="translate(0.000000,498.000000) scale(0.100000,-0.100000)"
fill="#000000" stroke="none">
<path d="M2035 3679 c-45 -4 -108 -17 -140 -29 -33 -12 -89 -32 -124 -45 -76
-28 -134 -80 -167 -150 -32 -66 -30 -92 8 -149 l31 -48 -18 -55 c-21 -63 -20
-69 49 -284 l43 -131 -23 -8 c-56 -22 -52 -77 16 -225 60 -130 84 -183 110
-243 l24 -53 -51 -52 c-77 -79 -120 -142 -128 -185 -6 -38 -9 -40 -153 -118
-172 -93 -248 -158 -319 -272 -91 -148 -105 -186 -114 -297 -7 -96 -26 -174
-65 -260 -9 -22 -30 -83 -45 -135 -14 -52 -36 -121 -48 -152 -13 -35 -21 -81
-21 -119 0 -95 -62 -317 -104 -372 -47 -62 -86 -159 -86 -214 0 -91 -34 -83
374 -83 l362 0 28 58 c15 31 48 89 72 129 24 39 51 87 59 107 18 44 20 43 109
-42 59 -55 66 -65 60 -90 -9 -37 -32 -82 -60 -115 -13 -16 -24 -33 -24 -38 0
-5 454 -9 1150 -9 633 0 1150 3 1150 8 -1 22 -46 59 -120 95 l-83 42 -3 90
c-1 55 3 106 11 130 19 57 42 149 65 262 48 231 80 916 47 996 -17 39 -110
126 -200 187 -66 45 -66 45 -67 93 0 87 -32 138 -194 306 -103 105 -139 132
-211 151 -27 7 -81 28 -120 46 -57 27 -90 35 -180 44 -174 16 -206 30 -186 83
5 12 5 31 1 42 -4 11 -5 56 -3 100 3 54 1 90 -9 111 -12 28 -13 14 -15 -133
-1 -111 -5 -168 -13 -178 -7 -8 -10 -22 -6 -30 6 -17 -36 -109 -55 -121 -8 -5
-9 -3 -4 5 6 10 3 11 -14 1 -12 -6 -25 -19 -27 -28 -17 -53 -68 -104 -107
-107 -11 -1 -26 -10 -33 -20 -8 -10 -14 -15 -14 -10 0 4 -8 1 -17 -8 -10 -8
-20 -15 -23 -15 -3 1 -28 -4 -56 -11 -46 -11 -55 -10 -85 7 -23 12 -41 16 -54
11 -33 -13 -44 -10 -56 12 -15 29 9 50 84 73 50 15 58 21 55 39 -3 20 -9 22
-78 22 -123 1 -130 21 -19 55 66 21 79 22 167 12 53 -6 98 -9 101 -6 12 11
-17 60 -42 72 -33 16 -77 8 -77 -13 0 -19 -16 -28 -39 -20 -21 6 -36 45 -18
46 7 0 -1 7 -18 14 -16 8 -37 12 -46 9 -18 -5 -62 33 -54 47 8 12 58 12 71 -1
8 -8 14 -7 23 3 24 29 -51 56 -87 31 -24 -16 -45 -10 -73 23 -24 26 -34 211
-15 257 21 51 3 81 -49 82 -60 1 -60 1 -87 40 -25 35 -27 35 -37 15 -7 -12
-15 -21 -19 -21 -9 0 -37 86 -38 120 -1 14 -5 48 -9 75 -16 98 -6 113 98 145
40 13 99 36 131 52 54 26 104 38 222 53 52 6 123 -29 214 -104 61 -51 69 -55
103 -52 9 1 17 -3 17 -8 0 -6 8 -11 18 -11 48 0 98 -83 70 -117 -6 -8 -2 -17
16 -28 23 -15 26 -24 26 -70 0 -52 9 -65 42 -65 12 0 4 184 -13 324 -11 87
-47 170 -98 223 -41 42 -144 115 -206 146 -95 47 -294 71 -460 56z m197 -74
c0 -5 -5 -11 -11 -13 -6 -2 -11 4 -11 13 0 9 5 15 11 13 6 -2 11 -8 11 -13z
m68 -9 c0 -3 -4 -8 -10 -11 -5 -3 -10 -1 -10 4 0 6 5 11 10 11 6 0 10 -2 10
-4z m-362 -938 c7 -7 12 -20 12 -30 0 -11 5 -15 15 -12 15 6 20 -13 16 -66 -4
-56 -11 -71 -34 -68 -14 2 -23 11 -25 26 -3 16 -8 21 -21 17 -13 -4 -22 6 -39
40 -25 52 -20 72 22 91 39 17 39 17 54 2z m798 -293 c-4 -41 -2 -123 4 -182
l11 -107 -40 -81 c-22 -44 -71 -125 -109 -180 -54 -80 -73 -100 -92 -101 -40
-1 -71 17 -65 37 4 13 -2 18 -29 23 -40 8 -46 14 -52 60 -3 24 2 38 16 51 24
21 26 51 5 59 -18 7 -19 30 -2 48 234 247 313 341 333 402 9 25 18 46 21 46 3
0 3 -34 -1 -75z m-526 40 c-13 -16 -65 -21 -74 -6 -9 14 6 22 21 10 10 -9 19
-8 35 4 27 18 36 14 18 -8z m48 6 c3 -8 -1 -12 -9 -9 -7 2 -15 10 -17 17 -3 8
1 12 9 9 7 -2 15 -10 17 -17z m-468 -1440 c126 -76 149 -270 45 -375 -55 -55
-112 -81 -159 -72 -54 10 -50 21 9 22 66 0 119 32 163 100 40 59 42 83 7 76
-14 -2 -25 -10 -25 -18 0 -19 -58 -82 -91 -100 -18 -9 -26 -19 -23 -29 4 -8 1
-15 -5 -15 -6 0 -11 7 -11 15 0 9 -9 15 -25 15 -15 0 -40 14 -63 36 -34 33
-34 34 -4 10 57 -44 137 -30 181 33 29 40 26 44 -14 20 -33 -20 -49 -13 -22 9
14 12 15 70 2 115 -10 36 16 37 44 1 15 -20 21 -22 21 -10 0 9 -16 34 -36 56
-77 85 -197 74 -233 -23 l-11 -29 31 31 c50 50 62 41 30 -22 -15 -29 -17 -45
-10 -74 10 -47 6 -51 -20 -17 -12 16 -21 21 -22 13 -1 -28 -18 27 -18 62 -1
22 -7 39 -15 42 -21 8 -25 0 -21 -51 3 -35 2 -41 -5 -22 -23 68 6 163 62 204
58 42 165 41 238 -3z m-145 -143 c-4 -13 -10 -39 -15 -58 l-8 -35 -1 32 c-1
30 16 83 27 83 2 0 1 -10 -3 -22z m82 -75 c-2 -16 -4 -5 -4 22 0 28 2 40 4 28
2 -13 2 -35 0 -50z m1361 39 c3 -17 -4 -23 -35 -31 -21 -6 -44 -11 -51 -11
-10 0 -12 -9 -7 -32 13 -64 15 -67 53 -70 53 -4 48 -29 -10 -47 -27 -8 -50
-12 -53 -9 -9 8 -37 167 -33 186 2 11 20 20 58 28 67 14 74 13 78 -14z m-1411
-44 c-3 -8 -6 -5 -6 6 -1 11 2 17 5 13 3 -3 4 -12 1 -19z m1203 -3 c0 -22 -4
-25 -36 -25 -31 0 -37 -4 -50 -35 -7 -19 -14 -51 -14 -70 l0 -36 26 20 c51 40
101 19 129 -54 33 -85 -3 -175 -70 -175 -34 0 -82 53 -99 109 -49 166 -16 291
76 291 34 0 38 -3 38 -25z m-231 -34 c43 -43 88 -220 76 -299 -18 -119 -136
-108 -180 17 -17 51 -20 196 -4 238 23 62 70 82 108 44z m-1085 -7 c3 -8 2
-12 -4 -9 -6 3 -10 10 -10 16 0 14 7 11 14 -7z m-14 -59 c14 -19 14 -19 -2 -6
-10 7 -18 18 -18 24 0 6 1 8 3 6 1 -2 9 -13 17 -24z m272 -10 c0 -5 -5 -11
-11 -13 -6 -2 -11 4 -11 13 0 9 5 15 11 13 6 -2 11 -8 11 -13z m-52 -45 c0 -5
-5 -10 -11 -10 -5 0 -7 5 -4 10 3 6 8 10 11 10 2 0 4 -4 4 -10z m-77 -110 c-3
-12 -8 -19 -11 -16 -5 6 5 36 12 36 2 0 2 -9 -1 -20z m34 -42 c-3 -7 -5 -2 -5
12 0 14 2 19 5 13 2 -7 2 -19 0 -25z m43 7 c0 -15 -6 -25 -14 -25 -8 0 -13 10
-13 25 0 15 5 25 13 25 8 0 14 -10 14 -25z m78 12 c7 3 12 -5 12 -21 0 -29
-19 -36 -21 -8 -1 15 -2 15 -6 1 -2 -10 -14 -16 -28 -16 -19 0 -25 5 -25 22 0
29 8 35 34 26 11 -5 27 -6 34 -4z"/>
<path d="M1637 960 c3 -11 12 -20 19 -20 8 0 14 9 14 20 0 13 -7 20 -19 20
-14 0 -18 -5 -14 -20z"/>
<path d="M1701 964 c0 -11 3 -14 6 -6 3 7 2 16 -1 19 -3 4 -6 -2 -5 -13z"/>
<path d="M1600 950 c0 -5 5 -10 11 -10 5 0 7 5 4 10 -3 6 -8 10 -11 10 -2 0
-4 -4 -4 -10z"/>
<path d="M1740 945 c0 -8 2 -15 4 -15 2 0 6 7 10 15 3 8 1 15 -4 15 -6 0 -10
-7 -10 -15z"/>
<path d="M1765 940 c-4 -12 -5 -24 -2 -27 3 -2 8 5 12 17 4 12 5 24 2 27 -3 2
-8 -5 -12 -17z"/>
<path d="M1565 940 c3 -5 11 -10 16 -10 6 0 7 5 4 10 -3 6 -11 10 -16 10 -6 0
-7 -4 -4 -10z"/>
<path d="M1535 930 c-8 -13 -1 -24 14 -19 6 3 7 10 2 18 -6 10 -10 10 -16 1z"/>
<path d="M1787 919 c-6 -22 6 -25 22 -5 9 10 8 15 -3 19 -8 3 -16 -2 -19 -14z"/>
<path d="M1816 894 c-9 -24 -8 -26 14 -14 11 6 18 15 15 21 -9 14 -22 11 -29
-7z"/>
<path d="M1510 891 c0 -5 7 -11 15 -15 8 -3 15 -1 15 3 0 5 -7 11 -15 15 -8 3
-15 1 -15 -3z"/>
<path d="M1846 865 c-12 -33 -7 -55 15 -55 18 0 20 4 14 28 -9 36 -21 47 -29
27z"/>
<path d="M1845 790 c-8 -13 15 -13 35 0 12 8 11 10 -7 10 -12 0 -25 -4 -28
-10z"/>
<path d="M1849 759 c-15 -10 -14 -10 19 -14 12 -1 22 1 22 5 0 13 -26 19 -41
9z"/>
<path d="M2815 553 c-34 -34 8 -143 55 -143 26 0 40 21 40 63 0 80 -52 124
-95 80z"/>
<path d="M2579 663 c-18 -20 -17 -150 0 -211 20 -72 62 -100 97 -65 14 14 15
29 10 83 -6 67 -36 171 -57 196 -15 19 -34 18 -50 -3z"/>
<path d="M2280 2938 c-25 -5 -69 -7 -99 -4 l-53 4 5 -36 c7 -40 66 -102 98
-102 10 0 23 -9 29 -20 10 -18 19 -21 68 -18 42 2 57 7 58 18 1 8 2 20 3 27 1
14 35 26 76 27 17 1 31 6 33 11 4 12 -30 23 -78 24 -40 1 -73 19 -52 28 7 2
19 11 26 19 9 8 35 14 67 14 85 0 49 11 -47 14 -49 1 -109 -1 -134 -6z"/>
<path d="M2850 2900 c0 -6 7 -13 16 -17 9 -3 25 -24 35 -47 l19 -41 0 32 c0
48 -19 83 -47 83 -12 0 -23 -5 -23 -10z"/>
<path d="M2785 2799 c-7 -10 31 -59 46 -59 9 0 -18 57 -31 65 -5 3 -12 0 -15
-6z"/>
</g>
</svg>
